<svg xmlns="http://www.w3.org/2000/svg" viewBox="0 0 30 32"><defs><style>.cls-1{fill:#444;}</style></defs><title>bin</title><g id="Layer_2" data-name="Layer 2"><g id="Layer_1-2" data-name="Layer 1"><path class="cls-1" d="M29,5H21V1a.94.94,0,0,0-1-1H10A.94.94,0,0,0,9,1V5H1A.94.94,0,0,0,0,6,.94.94,0,0,0,1,7H3V31a.94.94,0,0,0,1,1H26a.94.94,0,0,0,1-1V7h2a.94.94,0,0,0,1-1A.94.94,0,0,0,29,5ZM11,25a.94.94,0,0,1-1,1,.94.94,0,0,1-1-1V14a.94.94,0,0,1,1-1,.94.94,0,0,1,1,1ZM11,2h8V5H11Zm5,23a1,1,0,0,1-2,0V14a1,1,0,0,1,2,0Zm5,0a1,1,0,0,1-2,0V14a1,1,0,0,1,2,0Z"/></g></g></svg>