<svg xmlns="http://www.w3.org/2000/svg" viewBox="0 0 151 151"><defs><style>.cls-1{fill:#338fff;}</style></defs><title>logo</title><g id="Layer_2" data-name="Layer 2"><g id="Layer_1-2" data-name="Layer 1"><path class="cls-1" d="M141.26,151H4.87A4.6,4.6,0,0,1,0,146.13V9.74A4.6,4.6,0,0,1,4.87,4.87H58.45a4.6,4.6,0,0,1,4.87,4.87,4.6,4.6,0,0,1-4.87,4.87H9.74V141.26H136.39V92.55a4.87,4.87,0,0,1,9.74,0v53.58A4.6,4.6,0,0,1,141.26,151Z"/><path class="cls-1" d="M149.54,1.46A4.42,4.42,0,0,0,146.13,0c-1.95,0-42.86.49-68.19,25.82-15.1,15.1-17.54,31.66-17,43.84l15.59-8.77c2.44-1.46,4.87,1.95,2.92,3.9L45.3,98.88a4.71,4.71,0,0,0,0,6.82,4.71,4.71,0,0,0,6.82,0l17-17A50,50,0,0,0,83.78,90.6,55.78,55.78,0,0,0,124.7,73.06C150.51,47.74,151,6.82,151,4.87A4.42,4.42,0,0,0,149.54,1.46Z"/></g></g></svg>